<?xml version="1.0" encoding="utf-8"?>
<!-- Generator: Adobe Illustrator 19.2.1, SVG Export Plug-In . SVG Version: 6.00 Build 0)  -->
<svg version="1.1" id="Layer_1" xmlns="http://www.w3.org/2000/svg" xmlns:xlink="http://www.w3.org/1999/xlink" x="0px" y="0px"
	 viewBox="0 0 1180.7 220" style="enable-background:new 0 0 1180.7 220;" xml:space="preserve">
<style type="text/css">
	.st0{fill:#FFFFFF;}
	.st1{fill:#0FFF00;}
	.st2{fill:#FFFFFF;stroke:#231F20;stroke-width:18;stroke-miterlimit:10;}
	.st3{fill:#FFFFFF;fill-opacity:0;stroke:#F1F2F2;stroke-width:18;stroke-linecap:square;stroke-miterlimit:10;}
	.st4{fill:#FFFFFF;stroke:#F1F2F2;stroke-linecap:round;stroke-miterlimit:10;}
</style>
<g>
	<path class="st0" d="M4.2,146.9l24.8-3.8c1.1,4.8,3.2,8.5,6.4,10.9c3.2,2.5,7.7,3.7,13.5,3.7c6.4,0,11.2-1.2,14.4-3.5
		c2.2-1.6,3.3-3.8,3.3-6.6c0-1.9-0.6-3.4-1.8-4.7c-1.2-1.2-4-2.3-8.3-3.3c-19.9-4.4-32.5-8.4-37.9-12c-7.4-5-11.1-12-11.1-21
		c0-8.1,3.2-14.9,9.6-20.4c6.4-5.5,16.3-8.3,29.7-8.3c12.8,0,22.3,2.1,28.5,6.2c6.2,4.2,10.5,10.3,12.8,18.5L65,107.1
		c-1-3.6-2.9-6.4-5.7-8.3c-2.8-1.9-6.8-2.9-11.9-2.9c-6.5,0-11.2,0.9-14,2.7c-1.9,1.3-2.8,3-2.8,5c0,1.8,0.8,3.3,2.5,4.5
		c2.2,1.6,9.9,4,23.1,6.9c13.2,3,22.3,6.7,27.6,11c5.2,4.4,7.7,10.5,7.7,18.4c0,8.6-3.6,15.9-10.7,22.1c-7.1,6.2-17.7,9.2-31.7,9.2
		c-12.7,0-22.8-2.6-30.2-7.7C11.4,162.8,6.5,155.7,4.2,146.9z"/>
	<path class="st0" d="M194.4,107.8l-24.3,4.4c-0.8-4.9-2.7-8.5-5.6-11s-6.7-3.7-11.3-3.7c-6.2,0-11.1,2.1-14.7,6.4
		c-3.7,4.2-5.5,11.4-5.5,21.3c0,11.1,1.9,18.9,5.6,23.5c3.7,4.6,8.7,6.9,15,6.9c4.7,0,8.5-1.3,11.5-4c3-2.7,5.1-7.3,6.3-13.8
		l24.3,4.1c-2.5,11.1-7.4,19.5-14.5,25.2c-7.1,5.7-16.7,8.5-28.7,8.5c-13.7,0-24.5-4.3-32.7-12.9c-8.1-8.6-12.2-20.5-12.2-35.8
		c0-15.4,4.1-27.4,12.2-36c8.1-8.6,19.2-12.9,33-12.9c11.4,0,20.4,2.4,27.1,7.3C186.7,90.3,191.5,97.8,194.4,107.8z"/>
	<path class="st0" d="M213.1,67.5V44.7h24.7v22.9H213.1z M213.1,173.5V80.2h24.7v93.3H213.1z"/>
	<path class="st0" d="M262.3,173.5V44.7H287v68.4l28.9-32.9h30.4l-31.9,34.1l34.2,59.2h-26.6l-23.5-41.9l-11.5,12v29.9H262.3z"/>
	<path class="st0" d="M363.3,67.5V44.7h24.7v22.9H363.3z M363.3,173.5V80.2h24.7v93.3H363.3z"/>
	<path class="st0" d="M456.1,80.2v19.7h-16.9v37.6c0,7.6,0.2,12.1,0.5,13.3c0.3,1.3,1.1,2.3,2.2,3.1c1.1,0.8,2.5,1.2,4.2,1.2
		c2.3,0,5.6-0.8,9.9-2.4l2.1,19.2c-5.7,2.5-12.2,3.7-19.5,3.7c-4.5,0-8.5-0.7-12-2.2c-3.6-1.5-6.2-3.4-7.9-5.8s-2.8-5.6-3.5-9.6
		c-0.5-2.9-0.8-8.7-0.8-17.4V99.9h-11.3V80.2h11.3V61.6l24.8-14.4v33H456.1z"/>
	<path class="st0" d="M470.4,139.2v-24.7h48.5v24.7H470.4z"/>
	<path class="st1" d="M618,173.5h-24.7v-47.6c0-10.1-0.5-16.6-1.6-19.6c-1.1-3-2.8-5.3-5.1-6.9c-2.4-1.6-5.2-2.5-8.6-2.5
		c-4.3,0-8.1,1.2-11.5,3.5c-3.4,2.3-5.7,5.4-7,9.3c-1.3,3.9-1.9,11-1.9,21.4v42.3H533V80.2h22.9v13.7c8.1-10.5,18.4-15.8,30.8-15.8
		c5.4,0,10.4,1,14.9,2.9c4.5,2,7.9,4.5,10.2,7.5c2.3,3,3.9,6.5,4.8,10.4c0.9,3.9,1.4,9.4,1.4,16.6V173.5z"/>
	<path class="st1" d="M661.6,108.7l-22.4-4c2.5-9,6.9-15.7,13-20c6.2-4.3,15.3-6.5,27.4-6.5c11,0,19.2,1.3,24.6,3.9
		c5.4,2.6,9.2,5.9,11.4,9.9c2.2,4,3.3,11.4,3.3,22.1l-0.3,28.8c0,8.2,0.4,14.3,1.2,18.1c0.8,3.9,2.3,8.1,4.4,12.5h-24.4
		c-0.6-1.6-1.4-4.1-2.4-7.3c-0.4-1.5-0.7-2.4-0.9-2.9c-4.2,4.1-8.7,7.2-13.5,9.2c-4.8,2-9.9,3.1-15.4,3.1c-9.6,0-17.2-2.6-22.7-7.8
		c-5.5-5.2-8.3-11.8-8.3-19.8c0-5.3,1.3-10,3.8-14.1c2.5-4.1,6-7.3,10.6-9.5c4.5-2.2,11.1-4.1,19.6-5.8c11.5-2.2,19.5-4.2,24-6.1
		v-2.5c0-4.7-1.2-8.1-3.5-10.2c-2.3-2-6.8-3-13.3-3c-4.4,0-7.8,0.9-10.3,2.6C665.1,101.3,663.1,104.3,661.6,108.7z M694.6,128.7
		c-3.2,1.1-8.2,2.3-15,3.8c-6.9,1.5-11.3,2.9-13.4,4.3c-3.2,2.3-4.8,5.2-4.8,8.7c0,3.5,1.3,6.4,3.9,9c2.6,2.5,5.9,3.8,9.8,3.8
		c4.5,0,8.7-1.5,12.7-4.4c3-2.2,5-5,5.9-8.2c0.6-2.1,1-6.1,1-12V128.7z"/>
	<path class="st1" d="M828.1,173.5h-24.7v-47.6c0-10.1-0.5-16.6-1.6-19.6c-1.1-3-2.8-5.3-5.1-6.9c-2.4-1.6-5.2-2.5-8.6-2.5
		c-4.3,0-8.1,1.2-11.5,3.5c-3.4,2.3-5.7,5.4-7,9.3c-1.3,3.9-1.9,11-1.9,21.4v42.3H743V80.2H766v13.7c8.1-10.5,18.4-15.8,30.8-15.8
		c5.4,0,10.4,1,14.9,2.9c4.5,2,7.9,4.5,10.2,7.5c2.3,3,3.9,6.5,4.8,10.4c0.9,3.9,1.4,9.4,1.4,16.6V173.5z"/>
	<path class="st1" d="M847.4,125.5c0-8.2,2-16.1,6.1-23.8c4-7.7,9.8-13.5,17.2-17.6c7.4-4,15.7-6.1,24.8-6.1
		c14.1,0,25.7,4.6,34.7,13.8c9,9.2,13.5,20.8,13.5,34.8c0,14.1-4.6,25.8-13.7,35.1c-9.1,9.3-20.6,13.9-34.4,13.9
		c-8.6,0-16.7-1.9-24.5-5.8c-7.8-3.9-13.7-9.5-17.7-17S847.4,136.3,847.4,125.5z M872.8,126.9c0,9.3,2.2,16.3,6.6,21.3
		s9.8,7.4,16.3,7.4c6.4,0,11.9-2.5,16.2-7.4c4.4-4.9,6.5-12.1,6.5-21.4c0-9.1-2.2-16.2-6.5-21.1c-4.4-4.9-9.8-7.4-16.2-7.4
		c-6.4,0-11.9,2.5-16.3,7.4S872.8,117.6,872.8,126.9z"/>
</g>
<g>
	<path class="st2" d="M1127.7,57"/>
	<path class="st3" d="M1127.7,97.1V165c0,4.7-3.8,8.5-8.5,8.5h-108c-4.7,0-8.5-3.8-8.5-8.5V57c0-4.7,3.8-8.5,8.5-8.5h67.9"/>
	<path class="st4" d="M1167.1,4.4l-50.3,13.5c-2.9,0.8-3.9,4.4-1.7,6.5l7.9,7.9c1.5,1.5,1.5,4,0,5.5L1066.7,94c-1.5,1.5-1.5,4,0,5.5
		l10,10c1.5,1.5,4,1.5,5.5,0l56.2-56.2c1.5-1.5,4-1.5,5.5,0l7.9,7.9c2.1,2.1,5.7,1.1,6.5-1.7l13.5-50.3
		C1172.7,6.2,1170,3.6,1167.1,4.4z"/>
</g>
<g>
</g>
<g>
</g>
<g>
</g>
<g>
</g>
<g>
</g>
<g>
</g>
</svg>
